<svg xmlns="http://www.w3.org/2000/svg" version="1.1" xmlns:xlink="http://www.w3.org/1999/xlink" width="128" height="128"><svg width="128" height="128" viewBox="0 0 128 128" fill="none" xmlns="http://www.w3.org/2000/svg">
<path opacity="0.2" d="M86.83 72.83L42.5 117.5C40.8796 118.94 38.7703 119.707 36.6034 119.643C34.4366 119.579 32.376 118.69 30.8431 117.157C29.3103 115.624 28.421 113.563 28.3572 111.397C28.2934 109.23 29.06 107.12 30.5 105.5L62.845 72.815C63.2169 72.4435 63.5119 72.0024 63.7132 71.5168C63.9145 71.0312 64.0181 70.5107 64.0181 69.985C64.0181 69.4594 63.9145 68.9388 63.7132 68.4533C63.5119 67.9677 63.2169 67.5265 62.845 67.155L38.5 42.5C36.9123 40.9068 36.0208 38.7493 36.0208 36.5C36.0208 34.2508 36.9123 32.0932 38.5 30.5C40.0932 28.9123 42.2508 28.0208 44.5 28.0208C46.7492 28.0208 48.9068 28.9123 50.5 30.5L86.845 67.185C87.5895 67.9367 88.006 68.9526 88.0032 70.0106C88.0004 71.0686 87.5785 72.0823 86.83 72.83Z" fill="#7C86FF"></path>
<path d="M110.14 27.5L110.055 27.415L87.605 6.275C86.1021 4.79941 84.078 3.97602 81.9718 3.98351C79.8656 3.991 77.8474 4.82876 76.355 6.315L54.085 28.435L53.315 27.655C50.9408 25.4918 47.825 24.3256 44.6139 24.3982C41.4028 24.4708 38.3429 25.7766 36.0688 28.0449C33.7948 30.3132 32.4811 33.3697 32.4004 36.5806C32.3196 39.7915 33.4779 42.9103 35.635 45.29L36.365 46.03L26.345 56C25.6019 56.7429 25.0125 57.6249 24.6103 58.5956C24.2082 59.5663 24.0012 60.6068 24.0012 61.6575C24.0012 62.7082 24.2082 63.7487 24.6103 64.7194C25.0125 65.6901 25.6019 66.5721 26.345 67.315L32.685 73.655C34.1845 75.1496 36.2153 75.9888 38.3325 75.9888C40.4497 75.9888 42.4805 75.1496 43.98 73.655L53.945 63.83L60 70L27.655 102.685C26.4038 103.824 25.3967 105.204 24.6948 106.744C23.9929 108.283 23.6108 109.949 23.5716 111.64C23.5324 113.332 23.8369 115.013 24.4667 116.583C25.0966 118.154 26.0385 119.58 27.2357 120.775C28.4328 121.97 29.8601 122.91 31.4312 123.538C33.0022 124.166 34.6843 124.468 36.3756 124.426C38.0669 124.384 39.7321 124 41.2704 123.296C42.8087 122.592 44.1881 121.583 45.325 120.33L89.66 75.655C91.1561 74.1553 91.9963 72.1234 91.9963 70.005C91.9963 67.8866 91.1561 65.8547 89.66 64.355L71.815 46.33L78.28 40L78.33 40.045L97 57.7C98.5042 59.1795 100.532 60.0048 102.642 59.9964C104.752 59.988 106.773 59.1464 108.265 57.655L110.12 55.8C111.977 53.9428 113.451 51.738 114.456 49.3114C115.461 46.8848 115.978 44.284 115.978 41.6575C115.978 39.031 115.461 36.4302 114.456 34.0036C113.451 31.577 111.977 29.3722 110.12 27.515L110.14 27.5ZM38.345 68L32 61.665L42 51.725L48.345 58.155L38.345 68ZM39.655 114.685C39.2526 115.162 38.7556 115.55 38.1953 115.824C37.6351 116.098 37.0239 116.253 36.4006 116.279C35.7773 116.304 35.1555 116.2 34.5747 115.973C33.9938 115.745 33.4667 115.399 33.0266 114.957C32.5865 114.515 32.2432 113.986 32.0184 113.404C31.7936 112.822 31.6923 112.2 31.7208 111.577C31.7493 110.954 31.9071 110.343 32.1841 109.784C32.4612 109.225 32.8514 108.73 33.33 108.33L65.665 75.645C67.1565 74.1459 67.9938 72.1172 67.9938 70.0025C67.9938 67.8878 67.1565 65.8591 65.665 64.36L41.315 39.655C40.5828 38.7949 40.2008 37.6909 40.245 36.5621C40.2891 35.4334 40.7561 34.3626 41.5533 33.5623C42.3504 32.762 43.4194 32.2908 44.5479 32.2422C45.6765 32.1936 46.782 32.5712 47.645 33.3L84 70L39.655 114.685ZM104.5 50.14L102.625 52C102.601 51.9709 102.574 51.9441 102.545 51.92L83.845 34.25C82.3389 32.7996 80.3262 31.9943 78.2353 32.0055C76.1444 32.0167 74.1405 32.8435 72.65 34.31L66.185 40.645L59.715 34.115L82 12L82.085 12.08L104.525 33.21C106.758 35.464 108.007 38.5106 107.999 41.6833C107.992 44.8559 106.728 47.8965 104.485 50.14H104.5Z" fill="#7C86FF"></path>
</svg><style>@media (prefers-color-scheme: light) { :root { filter: none; } }
@media (prefers-color-scheme: dark) { :root { filter: none; } }
</style></svg>